# xmcd
# 
# Track frame offsets:
#     150
#     3496
#     44648
#     83928
#     121729
#     162156
#     194115
# 
# Disc length: 2916
# 
# Revision: 0
# Processed by: cddbd v1.5.2PL0 Copyright (c) Steve Scherf et al.
# Submitted via: fre:ac v1.0.17
# 
DISCID=590b6207
DTITLE=Orson Scott Card - Eye for Eye
DYEAR=2005
DGENRE=Speech
TTITLE0=Introduction
TTITLE1=P1-5
TTITLE2=P5-10
TTITLE3=P11-15
TTITLE4=P15-20
TTITLE5=P20-24
TTITLE6=P24-27
EXTD=
EXTT0=
EXTT1=
EXTT2=
EXTT3=
EXTT4=
EXTT5=
EXTT6=
PLAYORDER=
